ffmpeg started on 2026-01-18 at 21:21:45
Report written to "D:\Convert\FFMetrics\reports\psnr_report-6.txt"
Log level: 32
Command line:
ffmpeg -hide_banner -nostdin -r 24000/1001 -i "D:\\Convert\\files\\Nanatsu_no_Maken_ga_Shihai_suru_[02]_[AniLibria_TV]_[WEBRip_1080p]_HEVC.mkv" -r 24000/1001 -i "D:\\Convert\\files\\Nanatsu_no_Maken_ga_Shihai_suru_[02]_[AniLibria_TV]_[WEBRip_1080p].mkv" -lavfi "[0:v]settb=AVTB,setpts=PTS-STARTPTS,format=pix_fmts=yuv420p10le,fps=24000/1001,scale=1920:1080:flags=lanczos:param0=3:out_range=limited:out_color_matrix=bt709:out_chroma_loc=left,setsar=1/1,setdar=(1920/1080)*(1/1),colorspace=format=yuv420p10:range=tv:primaries=bt709:trc=bt709:space=bt709:fast=0[main];[1:v]settb=AVTB,setpts=PTS-STARTPTS,format=pix_fmts=yuv420p,fps=24000/1001,scale=1920:1080:flags=lanczos:param0=3:out_range=limited:out_color_matrix=bt709:out_chroma_loc=left,setsar=1.000,setdar=1.778,colorspace=format=yuv420p:range=tv:primaries=bt709:trc=bt709:space=bt709:fast=0[ref];[main][ref]psnr=eof_action=endall:stats_file='D\\:/Convert/FFMetrics/logs/psnr_logfile-6.txt'" -f null -
Input #0, matroska,webm, from 'D:\Convert\files\Nanatsu_no_Maken_ga_Shihai_suru_[02]_[AniLibria_TV]_[WEBRip_1080p]_HEVC.mkv':
  Metadata:
    ENCODER         : Lavf61.7.100
  Duration: 00:23:40.14, start: -0.021000, bitrate: 1195 kb/s
  Stream #0:0: Video: hevc (Main 10), yuv420p10le(tv, bt709, progressive), 1920x1080 [SAR 1:1 DAR 16:9], 23.98 fps, 23.98 tbr, 1k tbn (default)
      Metadata:
        title           : Original
        ENCODER         : Lavc61.19.100 libx265
        BPS             : 955902
        DURATION        : 00:23:40.043708333
        NUMBER_OF_FRAMES: 34047
        NUMBER_OF_BYTES : 169677755
        _STATISTICS_WRITING_APP: mkvpropedit v94.0 ('Initiate') 64-bit
        _STATISTICS_WRITING_DATE_UTC: 2026-01-18 18:14:22
        _STATISTICS_TAGS: BPS DURATION NUMBER_OF_FRAMES NUMBER_OF_BYTES
  Stream #0:1(rus): Audio: aac (LC), 48000 Hz, stereo, fltp (default)
      Metadata:
        title           : AniLibria.TV
        ENCODER         : Lavc61.19.100 aac
        BPS             : 194075
        DURATION        : 00:23:40.117000000
        NUMBER_OF_FRAMES: 66569
        NUMBER_OF_BYTES : 34451214
        _STATISTICS_WRITING_APP: mkvpropedit v94.0 ('Initiate') 64-bit
        _STATISTICS_WRITING_DATE_UTC: 2026-01-18 18:14:22
        _STATISTICS_TAGS: BPS DURATION NUMBER_OF_FRAMES NUMBER_OF_BYTES
  Stream #0:2(rus): Subtitle: ass (ssa) (default)
      Metadata:
        title           : Надписи
        BPS             : 340
        DURATION        : 00:22:14.570000000
        NUMBER_OF_FRAMES: 381
        NUMBER_OF_BYTES : 56799
        _STATISTICS_WRITING_APP: mkvpropedit v94.0 ('Initiate') 64-bit
        _STATISTICS_WRITING_DATE_UTC: 2026-01-18 18:14:22
        _STATISTICS_TAGS: BPS DURATION NUMBER_OF_FRAMES NUMBER_OF_BYTES
  Stream #0:3(rus): Subtitle: ass (ssa)
      Metadata:
        title           : Субтитры
        BPS             : 489
        DURATION        : 00:23:37.340000000
        NUMBER_OF_FRAMES: 749
        NUMBER_OF_BYTES : 86800
        _STATISTICS_WRITING_APP: mkvpropedit v94.0 ('Initiate') 64-bit
        _STATISTICS_WRITING_DATE_UTC: 2026-01-18 18:14:22
        _STATISTICS_TAGS: BPS DURATION NUMBER_OF_FRAMES NUMBER_OF_BYTES
  Stream #0:4: Attachment: ttf
      Metadata:
        filename        : AGPMOD.TTF
        mimetype        : application/x-truetype-font
  Stream #0:5: Attachment: ttf
      Metadata:
        filename        : DFPSNGyosho-W5-CP-Spec.ttf
        mimetype        : application/x-truetype-font
  Stream #0:6: Attachment: ttf
      Metadata:
        filename        : Modernist One.ttf
        mimetype        : application/x-truetype-font
  Stream #0:7: Attachment: ttf
      Metadata:
        filename        : 1125177.TTF
        mimetype        : application/x-truetype-font
  Stream #0:8: Attachment: ttf
      Metadata:
        filename        : Roboto-Medium.ttf
        mimetype        : application/x-truetype-font
  Stream #0:9: Attachment: ttf
      Metadata:
        filename        : Roboto-MediumItalic.ttf
        mimetype        : application/x-truetype-font
  Stream #0:10: Attachment: ttf
      Metadata:
        filename        : arial.ttf
        mimetype        : application/x-truetype-font
  Stream #0:11: Attachment: ttf
      Metadata:
        filename        : arialbd.ttf
        mimetype        : application/x-truetype-font
  Stream #0:12: Attachment: ttf
      Metadata:
        filename        : comic.ttf
        mimetype        : application/x-truetype-font
  Stream #0:13: Attachment: ttf
      Metadata:
        filename        : comicbd.ttf
        mimetype        : application/x-truetype-font
  Stream #0:14: Attachment: ttf
      Metadata:
        filename        : times.ttf
        mimetype        : application/x-truetype-font
  Stream #0:15: Attachment: ttf
      Metadata:
        filename        : timesbd.ttf
        mimetype        : application/x-truetype-font
  Stream #0:16: Attachment: ttf
      Metadata:
        filename        : trebuc.ttf
        mimetype        : application/x-truetype-font
  Stream #0:17: Attachment: ttf
      Metadata:
        filename        : trebucbd.ttf
        mimetype        : application/x-truetype-font
  Stream #0:18: Attachment: ttf
      Metadata:
        filename        : verdana.ttf
        mimetype        : application/x-truetype-font
  Stream #0:19: Attachment: ttf
      Metadata:
        filename        : verdanab.ttf
        mimetype        : application/x-truetype-font
  Stream #0:20: Attachment: ttf
      Metadata:
        filename        : CONSOLA.TTF
        mimetype        : application/x-truetype-font
  Stream #0:21: Attachment: ttf
      Metadata:
        filename        : CONSOLAB.TTF
        mimetype        : application/x-truetype-font
Input #1, matroska,webm, from 'D:\Convert\files\Nanatsu_no_Maken_ga_Shihai_suru_[02]_[AniLibria_TV]_[WEBRip_1080p].mkv':
  Metadata:
    encoder         : libebml v1.4.4 + libmatroska v1.7.1
    creation_time   : 2023-07-15T11:47:58.000000Z
  Duration: 00:23:40.12, start: 0.000000, bitrate: 8335 kb/s
  Stream #1:0: Video: h264 (High), yuv420p(tv, bt709, progressive), 1920x1080 [SAR 1:1 DAR 16:9], 23.98 fps, 23.98 tbr, 1k tbn (default)
      Metadata:
        title           : Original
        BPS             : 7971709
        DURATION        : 00:23:40.045000000
        NUMBER_OF_FRAMES: 34047
        NUMBER_OF_BYTES : 1415023222
        _STATISTICS_WRITING_APP: mkvmerge v77.0 ('Elemental') 64-bit
        _STATISTICS_WRITING_DATE_UTC: 2023-07-15 11:47:58
        _STATISTICS_TAGS: BPS DURATION NUMBER_OF_FRAMES NUMBER_OF_BYTES
  Stream #1:1(rus): Audio: aac (LC), 48000 Hz, stereo, fltp (default)
      Metadata:
        title           : AniLibria.TV
        BPS             : 191999
        DURATION        : 00:23:40.117000000
        NUMBER_OF_FRAMES: 66568
        NUMBER_OF_BYTES : 34082731
        _STATISTICS_WRITING_APP: mkvmerge v77.0 ('Elemental') 64-bit
        _STATISTICS_WRITING_DATE_UTC: 2023-07-15 11:47:58
        _STATISTICS_TAGS: BPS DURATION NUMBER_OF_FRAMES NUMBER_OF_BYTES
  Stream #1:2(jpn): Audio: aac (LC), 44100 Hz, stereo, fltp
      Metadata:
        title           : Original
        BPS             : 128000
        DURATION        : 00:23:40.109000000
        NUMBER_OF_FRAMES: 61159
        NUMBER_OF_BYTES : 22721748
        _STATISTICS_WRITING_APP: mkvmerge v77.0 ('Elemental') 64-bit
        _STATISTICS_WRITING_DATE_UTC: 2023-07-15 11:47:58
        _STATISTICS_TAGS: BPS DURATION NUMBER_OF_FRAMES NUMBER_OF_BYTES
  Stream #1:3(rus): Subtitle: ass (ssa) (default)
      Metadata:
        title           : Надписи
        BPS             : 340
        DURATION        : 00:22:14.570000000
        NUMBER_OF_FRAMES: 381
        NUMBER_OF_BYTES : 56799
        _STATISTICS_WRITING_APP: mkvmerge v77.0 ('Elemental') 64-bit
        _STATISTICS_WRITING_DATE_UTC: 2023-07-15 11:47:58
        _STATISTICS_TAGS: BPS DURATION NUMBER_OF_FRAMES NUMBER_OF_BYTES
  Stream #1:4(rus): Subtitle: ass (ssa)
      Metadata:
        title           : Субтитры
        BPS             : 489
        DURATION        : 00:23:37.340000000
        NUMBER_OF_FRAMES: 749
        NUMBER_OF_BYTES : 86800
        _STATISTICS_WRITING_APP: mkvmerge v77.0 ('Elemental') 64-bit
        _STATISTICS_WRITING_DATE_UTC: 2023-07-15 11:47:58
        _STATISTICS_TAGS: BPS DURATION NUMBER_OF_FRAMES NUMBER_OF_BYTES
  Stream #1:5: Attachment: ttf
      Metadata:
        filename        : AGPMOD.TTF
        mimetype        : application/x-truetype-font
  Stream #1:6: Attachment: ttf
      Metadata:
        filename        : DFPSNGyosho-W5-CP-Spec.ttf
        mimetype        : application/x-truetype-font
  Stream #1:7: Attachment: ttf
      Metadata:
        filename        : Modernist One.ttf
        mimetype        : application/x-truetype-font
  Stream #1:8: Attachment: ttf
      Metadata:
        filename        : 1125177.TTF
        mimetype        : application/x-truetype-font
  Stream #1:9: Attachment: ttf
      Metadata:
        filename        : Roboto-Medium.ttf
        mimetype        : application/x-truetype-font
  Stream #1:10: Attachment: ttf
      Metadata:
        filename        : Roboto-MediumItalic.ttf
        mimetype        : application/x-truetype-font
  Stream #1:11: Attachment: ttf
      Metadata:
        filename        : arial.ttf
        mimetype        : application/x-truetype-font
  Stream #1:12: Attachment: ttf
      Metadata:
        filename        : arialbd.ttf
        mimetype        : application/x-truetype-font
  Stream #1:13: Attachment: ttf
      Metadata:
        filename        : comic.ttf
        mimetype        : application/x-truetype-font
  Stream #1:14: Attachment: ttf
      Metadata:
        filename        : comicbd.ttf
        mimetype        : application/x-truetype-font
  Stream #1:15: Attachment: ttf
      Metadata:
        filename        : times.ttf
        mimetype        : application/x-truetype-font
  Stream #1:16: Attachment: ttf
      Metadata:
        filename        : timesbd.ttf
        mimetype        : application/x-truetype-font
  Stream #1:17: Attachment: ttf
      Metadata:
        filename        : trebuc.ttf
        mimetype        : application/x-truetype-font
  Stream #1:18: Attachment: ttf
      Metadata:
        filename        : trebucbd.ttf
        mimetype        : application/x-truetype-font
  Stream #1:19: Attachment: ttf
      Metadata:
        filename        : verdana.ttf
        mimetype        : application/x-truetype-font
  Stream #1:20: Attachment: ttf
      Metadata:
        filename        : verdanab.ttf
        mimetype        : application/x-truetype-font
  Stream #1:21: Attachment: ttf
      Metadata:
        filename        : CONSOLA.TTF
        mimetype        : application/x-truetype-font
  Stream #1:22: Attachment: ttf
      Metadata:
        filename        : CONSOLAB.TTF
        mimetype        : application/x-truetype-font
Stream mapping:
  Stream #0:0 (hevc) -> settb:default
  Stream #1:0 (h264) -> settb:default
  psnr:default -> Stream #0:0 (wrapped_avframe)
  Stream #0:1 -> #0:1 (aac (native) -> pcm_s16le (native))
Output #0, null, to 'pipe:':
  Metadata:
    encoder         : Lavf61.7.100
  Stream #0:0: Video: wrapped_avframe, yuv420p10le(tv, bt709, progressive), 1920x1080 [SAR 1:1 DAR 16:9], q=2-31, 200 kb/s, 23.98 fps, 23.98 tbn
      Metadata:
        encoder         : Lavc61.19.100 wrapped_avframe
  Stream #0:1(rus): Audio: pcm_s16le, 48000 Hz, stereo, s16, 1536 kb/s (default)
      Metadata:
        title           : AniLibria.TV
        _STATISTICS_TAGS: BPS DURATION NUMBER_OF_FRAMES NUMBER_OF_BYTES
        BPS             : 194075
        DURATION        : 00:23:40.117000000
        NUMBER_OF_FRAMES: 66569
        NUMBER_OF_BYTES : 34451214
        _STATISTICS_WRITING_APP: mkvpropedit v94.0 ('Initiate') 64-bit
        _STATISTICS_WRITING_DATE_UTC: 2026-01-18 18:14:22
        encoder         : Lavc61.19.100 pcm_s16le
frame=  142 fps=0.0 q=-0.0 size=N/A time=00:00:05.92 bitrate=N/A speed=11.3x    frame=  342 fps=330 q=-0.0 size=N/A time=00:00:14.26 bitrate=N/A speed=13.8x    frame=  543 fps=350 q=-0.0 size=N/A time=00:00:22.64 bitrate=N/A speed=14.6x    frame=  756 fps=367 q=-0.0 size=N/A time=00:00:31.53 bitrate=N/A speed=15.3x    frame=  966 fps=375 q=-0.0 size=N/A time=00:00:40.29 bitrate=N/A speed=15.7x    frame= 1173 fps=378 q=-0.0 size=N/A time=00:00:48.92 bitrate=N/A speed=15.8x    frame= 1364 fps=378 q=-0.0 size=N/A time=00:00:56.89 bitrate=N/A speed=15.7x    frame= 1578 fps=383 q=-0.0 size=N/A time=00:01:05.81 bitrate=N/A speed=  16x    frame= 1778 fps=383 q=-0.0 size=N/A time=00:01:14.15 bitrate=N/A speed=  16x    frame= 1981 fps=384 q=-0.0 size=N/A time=00:01:22.62 bitrate=N/A speed=  16x    frame= 2177 fps=383 q=-0.0 size=N/A time=00:01:30.79 bitrate=N/A speed=  16x    frame= 2341 fps=378 q=-0.0 size=N/A time=00:01:37.63 bitrate=N/A speed=15.8x    frame= 2525 fps=377 q=-0.0 size=N/A time=00:01:45.31 bitrate=N/A speed=15.7x    frame= 2704 fps=375 q=-0.0 size=N/A time=00:01:52.77 bitrate=N/A speed=15.6x    frame= 2872 fps=371 q=-0.0 size=N/A time=00:01:59.78 bitrate=N/A speed=15.5x    frame= 3044 fps=369 q=-0.0 size=N/A time=00:02:06.96 bitrate=N/A speed=15.4x    frame= 3193 fps=364 q=-0.0 size=N/A time=00:02:13.17 bitrate=N/A speed=15.2x    frame= 3371 fps=363 q=-0.0 size=N/A time=00:02:20.59 bitrate=N/A speed=15.2x    frame= 3551 fps=362 q=-0.0 size=N/A time=00:02:28.10 bitrate=N/A speed=15.1x    frame= 3738 fps=362 q=-0.0 size=N/A time=00:02:35.90 bitrate=N/A speed=15.1x    frame= 3935 fps=363 q=-0.0 size=N/A time=00:02:44.12 bitrate=N/A speed=15.2x    frame= 4101 fps=362 q=-0.0 size=N/A time=00:02:51.04 bitrate=N/A speed=15.1x    frame= 4305 fps=363 q=-0.0 size=N/A time=00:02:59.55 bitrate=N/A speed=15.1x    frame= 4501 fps=364 q=-0.0 size=N/A time=00:03:07.72 bitrate=N/A speed=15.2x    frame= 4688 fps=364 q=-0.0 size=N/A time=00:03:15.52 bitrate=N/A speed=15.2x    frame= 4886 fps=364 q=-0.0 size=N/A time=00:03:23.78 bitrate=N/A speed=15.2x    frame= 5047 fps=362 q=-0.0 size=N/A time=00:03:30.50 bitrate=N/A speed=15.1x    frame= 5179 fps=359 q=-0.0 size=N/A time=00:03:36.00 bitrate=N/A speed=  15x    frame= 5349 fps=358 q=-0.0 size=N/A time=00:03:43.09 bitrate=N/A speed=14.9x    frame= 5552 fps=359 q=-0.0 size=N/A time=00:03:51.56 bitrate=N/A speed=  15x    frame= 5752 fps=360 q=-0.0 size=N/A time=00:03:59.90 bitrate=N/A speed=  15x    frame= 5954 fps=361 q=-0.0 size=N/A time=00:04:08.33 bitrate=N/A speed=  15x    frame= 6160 fps=362 q=-0.0 size=N/A time=00:04:16.92 bitrate=N/A speed=15.1x    frame= 6367 fps=363 q=-0.0 size=N/A time=00:04:25.55 bitrate=N/A speed=15.1x    frame= 6555 fps=363 q=-0.0 size=N/A time=00:04:33.39 bitrate=N/A speed=15.1x    frame= 6767 fps=365 q=-0.0 size=N/A time=00:04:42.24 bitrate=N/A speed=15.2x    frame= 6967 fps=365 q=-0.0 size=N/A time=00:04:50.58 bitrate=N/A speed=15.2x    frame= 7185 fps=367 q=-0.0 size=N/A time=00:04:59.67 bitrate=N/A speed=15.3x    frame= 7379 fps=367 q=-0.0 size=N/A time=00:05:07.76 bitrate=N/A speed=15.3x    frame= 7572 fps=367 q=-0.0 size=N/A time=00:05:15.81 bitrate=N/A speed=15.3x    frame= 7788 fps=368 q=-0.0 size=N/A time=00:05:24.82 bitrate=N/A speed=15.4x    frame= 7986 fps=369 q=-0.0 size=N/A time=00:05:33.08 bitrate=N/A speed=15.4x    frame= 8172 fps=368 q=-0.0 size=N/A time=00:05:40.84 bitrate=N/A speed=15.4x    frame= 8382 fps=369 q=-0.0 size=N/A time=00:05:49.59 bitrate=N/A speed=15.4x    frame= 8591 fps=370 q=-0.0 size=N/A time=00:05:58.31 bitrate=N/A speed=15.4x    frame= 8799 fps=371 q=-0.0 size=N/A time=00:06:06.99 bitrate=N/A speed=15.5x    frame= 8977 fps=370 q=-0.0 size=N/A time=00:06:14.41 bitrate=N/A speed=15.4x    frame= 9186 fps=371 q=-0.0 size=N/A time=00:06:23.13 bitrate=N/A speed=15.5x    frame= 9366 fps=371 q=-0.0 size=N/A time=00:06:30.64 bitrate=N/A speed=15.5x    frame= 9571 fps=371 q=-0.0 size=N/A time=00:06:39.19 bitrate=N/A speed=15.5x    frame= 9766 fps=371 q=-0.0 size=N/A time=00:06:47.32 bitrate=N/A speed=15.5x    frame= 9955 fps=371 q=-0.0 size=N/A time=00:06:55.20 bitrate=N/A speed=15.5x    frame=10126 fps=371 q=-0.0 size=N/A time=00:07:02.33 bitrate=N/A speed=15.5x    frame=10320 fps=371 q=-0.0 size=N/A time=00:07:10.43 bitrate=N/A speed=15.5x    frame=10480 fps=369 q=-0.0 size=N/A time=00:07:17.10 bitrate=N/A speed=15.4x    frame=10650 fps=369 q=-0.0 size=N/A time=00:07:24.19 bitrate=N/A speed=15.4x    frame=10804 fps=368 q=-0.0 size=N/A time=00:07:30.61 bitrate=N/A speed=15.3x    frame=10972 fps=367 q=-0.0 size=N/A time=00:07:37.62 bitrate=N/A speed=15.3x    frame=11143 fps=366 q=-0.0 size=N/A time=00:07:44.75 bitrate=N/A speed=15.3x    frame=11325 fps=366 q=-0.0 size=N/A time=00:07:52.34 bitrate=N/A speed=15.3x    frame=11473 fps=365 q=-0.0 size=N/A time=00:07:58.51 bitrate=N/A speed=15.2x    frame=11657 fps=364 q=-0.0 size=N/A time=00:08:06.19 bitrate=N/A speed=15.2x    frame=11839 fps=364 q=-0.0 size=N/A time=00:08:13.78 bitrate=N/A speed=15.2x    frame=12025 fps=364 q=-0.0 size=N/A time=00:08:21.54 bitrate=N/A speed=15.2x    frame=12231 fps=365 q=-0.0 size=N/A time=00:08:30.13 bitrate=N/A speed=15.2x    frame=12425 fps=365 q=-0.0 size=N/A time=00:08:38.22 bitrate=N/A speed=15.2x    frame=12577 fps=364 q=-0.0 size=N/A time=00:08:44.56 bitrate=N/A speed=15.2x    frame=12763 fps=364 q=-0.0 size=N/A time=00:08:52.32 bitrate=N/A speed=15.2x    frame=12949 fps=364 q=-0.0 size=N/A time=00:09:00.08 bitrate=N/A speed=15.2x    frame=13151 fps=364 q=-0.0 size=N/A time=00:09:08.50 bitrate=N/A speed=15.2x    frame=13356 fps=365 q=-0.0 size=N/A time=00:09:17.05 bitrate=N/A speed=15.2x    frame=13547 fps=365 q=-0.0 size=N/A time=00:09:25.02 bitrate=N/A speed=15.2x    frame=13748 fps=365 q=-0.0 size=N/A time=00:09:33.40 bitrate=N/A speed=15.2x    frame=13954 fps=366 q=-0.0 size=N/A time=00:09:41.99 bitrate=N/A speed=15.2x    frame=14153 fps=366 q=-0.0 size=N/A time=00:09:50.29 bitrate=N/A speed=15.3x    frame=14349 fps=366 q=-0.0 size=N/A time=00:09:58.47 bitrate=N/A speed=15.3x    frame=14541 fps=366 q=-0.0 size=N/A time=00:10:06.48 bitrate=N/A speed=15.3x    frame=14744 fps=366 q=-0.0 size=N/A time=00:10:14.94 bitrate=N/A speed=15.3x    frame=14951 fps=367 q=-0.0 size=N/A time=00:10:23.58 bitrate=N/A speed=15.3x    frame=15158 fps=367 q=-0.0 size=N/A time=00:10:32.21 bitrate=N/A speed=15.3x    frame=15358 fps=368 q=-0.0 size=N/A time=00:10:40.55 bitrate=N/A speed=15.3x    frame=15551 fps=368 q=-0.0 size=N/A time=00:10:48.60 bitrate=N/A speed=15.3x    frame=15737 fps=368 q=-0.0 size=N/A time=00:10:56.36 bitrate=N/A speed=15.3x    frame=15919 fps=367 q=-0.0 size=N/A time=00:11:03.95 bitrate=N/A speed=15.3x    frame=16121 fps=368 q=-0.0 size=N/A time=00:11:12.38 bitrate=N/A speed=15.3x    frame=16300 fps=367 q=-0.0 size=N/A time=00:11:19.84 bitrate=N/A speed=15.3x    frame=16475 fps=367 q=-0.0 size=N/A time=00:11:27.14 bitrate=N/A speed=15.3x    frame=16675 fps=367 q=-0.0 size=N/A time=00:11:35.48 bitrate=N/A speed=15.3x    frame=16817 fps=366 q=-0.0 size=N/A time=00:11:41.40 bitrate=N/A speed=15.3x    frame=17015 fps=366 q=-0.0 size=N/A time=00:11:49.66 bitrate=N/A speed=15.3x    frame=17174 fps=366 q=-0.0 size=N/A time=00:11:56.29 bitrate=N/A speed=15.3x    frame=17365 fps=366 q=-0.0 size=N/A time=00:12:04.26 bitrate=N/A speed=15.3x    frame=17555 fps=366 q=-0.0 size=N/A time=00:12:12.18 bitrate=N/A speed=15.3x    frame=17750 fps=366 q=-0.0 size=N/A time=00:12:20.32 bitrate=N/A speed=15.3x    frame=17936 fps=366 q=-0.0 size=N/A time=00:12:28.08 bitrate=N/A speed=15.3x    frame=18113 fps=366 q=-0.0 size=N/A time=00:12:35.46 bitrate=N/A speed=15.2x    frame=18301 fps=366 q=-0.0 size=N/A time=00:12:43.30 bitrate=N/A speed=15.2x    frame=18502 fps=366 q=-0.0 size=N/A time=00:12:51.68 bitrate=N/A speed=15.3x    frame=18701 fps=366 q=-0.0 size=N/A time=00:12:59.98 bitrate=N/A speed=15.3x    frame=18873 fps=366 q=-0.0 size=N/A time=00:13:07.16 bitrate=N/A speed=15.2x    frame=19067 fps=366 q=-0.0 size=N/A time=00:13:15.25 bitrate=N/A speed=15.3x    frame=19265 fps=366 q=-0.0 size=N/A time=00:13:23.51 bitrate=N/A speed=15.3x    frame=19467 fps=366 q=-0.0 size=N/A time=00:13:31.93 bitrate=N/A speed=15.3x    frame=19662 fps=366 q=-0.0 size=N/A time=00:13:40.06 bitrate=N/A speed=15.3x    frame=19871 fps=367 q=-0.0 size=N/A time=00:13:48.78 bitrate=N/A speed=15.3x    frame=20072 fps=367 q=-0.0 size=N/A time=00:13:57.16 bitrate=N/A speed=15.3x    frame=20263 fps=367 q=-0.0 size=N/A time=00:14:05.13 bitrate=N/A speed=15.3x    frame=20473 fps=367 q=-0.0 size=N/A time=00:14:13.89 bitrate=N/A speed=15.3x    frame=20681 fps=368 q=-0.0 size=N/A time=00:14:22.57 bitrate=N/A speed=15.3x    frame=20878 fps=368 q=-0.0 size=N/A time=00:14:30.78 bitrate=N/A speed=15.3x    frame=21090 fps=368 q=-0.0 size=N/A time=00:14:39.62 bitrate=N/A speed=15.4x    frame=21305 fps=369 q=-0.0 size=N/A time=00:14:48.59 bitrate=N/A speed=15.4x    frame=21493 fps=369 q=-0.0 size=N/A time=00:14:56.43 bitrate=N/A speed=15.4x    frame=21695 fps=369 q=-0.0 size=N/A time=00:15:04.86 bitrate=N/A speed=15.4x    frame=21901 fps=369 q=-0.0 size=N/A time=00:15:13.45 bitrate=N/A speed=15.4x    frame=22072 fps=369 q=-0.0 size=N/A time=00:15:20.58 bitrate=N/A speed=15.4x    frame=22278 fps=369 q=-0.0 size=N/A time=00:15:29.17 bitrate=N/A speed=15.4x    frame=22491 fps=369 q=-0.0 size=N/A time=00:15:38.06 bitrate=N/A speed=15.4x    frame=22703 fps=370 q=-0.0 size=N/A time=00:15:46.90 bitrate=N/A speed=15.4x    frame=22897 fps=370 q=-0.0 size=N/A time=00:15:54.99 bitrate=N/A speed=15.4x    frame=23109 fps=370 q=-0.0 size=N/A time=00:16:03.83 bitrate=N/A speed=15.4x    frame=23297 fps=370 q=-0.0 size=N/A time=00:16:11.67 bitrate=N/A speed=15.4x    frame=23482 fps=370 q=-0.0 size=N/A time=00:16:19.39 bitrate=N/A speed=15.4x    frame=23684 fps=370 q=-0.0 size=N/A time=00:16:27.82 bitrate=N/A speed=15.4x    frame=23900 fps=370 q=-0.0 size=N/A time=00:16:36.82 bitrate=N/A speed=15.5x    frame=24108 fps=371 q=-0.0 size=N/A time=00:16:45.50 bitrate=N/A speed=15.5x    frame=24320 fps=371 q=-0.0 size=N/A time=00:16:54.34 bitrate=N/A speed=15.5x    frame=24529 fps=371 q=-0.0 size=N/A time=00:17:03.06 bitrate=N/A speed=15.5x    frame=24743 fps=372 q=-0.0 size=N/A time=00:17:11.98 bitrate=N/A speed=15.5x    frame=24927 fps=371 q=-0.0 size=N/A time=00:17:19.66 bitrate=N/A speed=15.5x    frame=25131 fps=372 q=-0.0 size=N/A time=00:17:28.17 bitrate=N/A speed=15.5x    frame=25330 fps=372 q=-0.0 size=N/A time=00:17:36.47 bitrate=N/A speed=15.5x    frame=25544 fps=372 q=-0.0 size=N/A time=00:17:45.39 bitrate=N/A speed=15.5x    frame=25737 fps=372 q=-0.0 size=N/A time=00:17:53.44 bitrate=N/A speed=15.5x    frame=25921 fps=372 q=-0.0 size=N/A time=00:18:01.12 bitrate=N/A speed=15.5x    frame=26103 fps=372 q=-0.0 size=N/A time=00:18:08.71 bitrate=N/A speed=15.5x    frame=26303 fps=372 q=-0.0 size=N/A time=00:18:17.05 bitrate=N/A speed=15.5x    frame=26507 fps=372 q=-0.0 size=N/A time=00:18:25.56 bitrate=N/A speed=15.5x    frame=26714 fps=372 q=-0.0 size=N/A time=00:18:34.19 bitrate=N/A speed=15.5x    frame=26900 fps=372 q=-0.0 size=N/A time=00:18:41.95 bitrate=N/A speed=15.5x    frame=27101 fps=372 q=-0.0 size=N/A time=00:18:50.33 bitrate=N/A speed=15.5x    frame=27309 fps=373 q=-0.0 size=N/A time=00:18:59.01 bitrate=N/A speed=15.5x    frame=27514 fps=373 q=-0.0 size=N/A time=00:19:07.56 bitrate=N/A speed=15.6x    frame=27719 fps=373 q=-0.0 size=N/A time=00:19:16.11 bitrate=N/A speed=15.6x    frame=27917 fps=373 q=-0.0 size=N/A time=00:19:24.37 bitrate=N/A speed=15.6x    frame=28112 fps=373 q=-0.0 size=N/A time=00:19:32.50 bitrate=N/A speed=15.6x    frame=28311 fps=373 q=-0.0 size=N/A time=00:19:40.80 bitrate=N/A speed=15.6x    frame=28500 fps=373 q=-0.0 size=N/A time=00:19:48.68 bitrate=N/A speed=15.6x    frame=28687 fps=373 q=-0.0 size=N/A time=00:19:56.48 bitrate=N/A speed=15.6x    frame=28866 fps=373 q=-0.0 size=N/A time=00:20:03.95 bitrate=N/A speed=15.6x    frame=29058 fps=373 q=-0.0 size=N/A time=00:20:11.96 bitrate=N/A speed=15.6x    frame=29257 fps=373 q=-0.0 size=N/A time=00:20:20.26 bitrate=N/A speed=15.6x    frame=29457 fps=373 q=-0.0 size=N/A time=00:20:28.60 bitrate=N/A speed=15.6x    frame=29664 fps=373 q=-0.0 size=N/A time=00:20:37.23 bitrate=N/A speed=15.6x    frame=29863 fps=373 q=-0.0 size=N/A time=00:20:45.53 bitrate=N/A speed=15.6x    frame=30057 fps=373 q=-0.0 size=N/A time=00:20:53.62 bitrate=N/A speed=15.6x    frame=30250 fps=373 q=-0.0 size=N/A time=00:21:01.67 bitrate=N/A speed=15.6x    frame=30458 fps=374 q=-0.0 size=N/A time=00:21:10.35 bitrate=N/A speed=15.6x    frame=30655 fps=374 q=-0.0 size=N/A time=00:21:18.56 bitrate=N/A speed=15.6x    frame=30860 fps=374 q=-0.0 size=N/A time=00:21:27.11 bitrate=N/A speed=15.6x    frame=31058 fps=374 q=-0.0 size=N/A time=00:21:35.37 bitrate=N/A speed=15.6x    frame=31260 fps=374 q=-0.0 size=N/A time=00:21:43.80 bitrate=N/A speed=15.6x    frame=31458 fps=374 q=-0.0 size=N/A time=00:21:52.06 bitrate=N/A speed=15.6x    frame=31655 fps=374 q=-0.0 size=N/A time=00:22:00.27 bitrate=N/A speed=15.6x    frame=31858 fps=374 q=-0.0 size=N/A time=00:22:08.74 bitrate=N/A speed=15.6x    frame=32067 fps=374 q=-0.0 size=N/A time=00:22:17.46 bitrate=N/A speed=15.6x    frame=32281 fps=375 q=-0.0 size=N/A time=00:22:26.38 bitrate=N/A speed=15.6x    frame=32483 fps=375 q=-0.0 size=N/A time=00:22:34.81 bitrate=N/A speed=15.6x    frame=32687 fps=375 q=-0.0 size=N/A time=00:22:43.32 bitrate=N/A speed=15.6x    frame=32898 fps=375 q=-0.0 size=N/A time=00:22:52.12 bitrate=N/A speed=15.6x    frame=33103 fps=375 q=-0.0 size=N/A time=00:23:00.67 bitrate=N/A speed=15.6x    frame=33302 fps=375 q=-0.0 size=N/A time=00:23:08.97 bitrate=N/A speed=15.7x    frame=33513 fps=375 q=-0.0 size=N/A time=00:23:17.77 bitrate=N/A speed=15.7x    frame=33718 fps=376 q=-0.0 size=N/A time=00:23:26.32 bitrate=N/A speed=15.7x    frame=33926 fps=376 q=-0.0 size=N/A time=00:23:34.99 bitrate=N/A speed=15.7x    [Parsed_psnr_16 @ 000001fb274b1240] PSNR y:48.933711 u:48.502166 v:48.363827 average:48.760114 min:39.961998 max:76.830322
[out#0/null @ 000001fb23897ac0] video:14630KiB audio:266276KiB subtitle:0KiB other streams:0KiB global headers:0KiB muxing overhead: unknown
frame=34047 fps=376 q=-0.0 Lsize=N/A time=00:23:40.04 bitrate=N/A speed=15.7x    
